<svg width="29" height="33" viewBox="0 0 29 33" fill="none" xmlns="http://www.w3.org/2000/svg">
<path d="M23.2878 23.3479L16.5654 30.0703C16.2714 30.3646 15.9223 30.598 15.5381 30.7573C15.1538 30.9166 14.7419 30.9985 14.326 30.9985C13.91 30.9985 13.4981 30.9166 13.1138 30.7573C12.7296 30.598 12.3805 30.3646 12.0865 30.0703L5.36252 23.3479C3.58999 21.5753 2.3829 19.3168 1.89389 16.8582C1.40488 14.3995 1.65593 11.8511 2.61527 9.53513C3.57461 7.21916 5.19917 5.23967 7.28351 3.84698C9.36785 2.45428 11.8184 1.71094 14.3252 1.71094C16.832 1.71094 19.2825 2.45428 21.3668 3.84698C23.4512 5.23967 25.0757 7.21916 26.0351 9.53513C26.9944 11.8511 27.2455 14.3995 26.7564 16.8582C26.2674 19.3168 25.0604 21.5753 23.2878 23.3479V23.3479Z" stroke="#1DB954" stroke-width="2.37652" stroke-linecap="round" stroke-linejoin="round"/>
<path d="M19.0783 14.3857C19.0783 15.6463 18.5776 16.8553 17.6862 17.7466C16.7948 18.638 15.5859 19.1388 14.3253 19.1388C13.0647 19.1388 11.8558 18.638 10.9644 17.7466C10.073 16.8553 9.57227 15.6463 9.57227 14.3857C9.57227 13.1251 10.073 11.9162 10.9644 11.0248C11.8558 10.1335 13.0647 9.63269 14.3253 9.63269C15.5859 9.63269 16.7948 10.1335 17.6862 11.0248C18.5776 11.9162 19.0783 13.1251 19.0783 14.3857V14.3857Z" stroke="#1DB954" stroke-width="2.37652" stroke-linecap="round" stroke-linejoin="round"/>
</svg>
