<svg width="35" height="35" viewBox="0 0 35 35" fill="none" xmlns="http://www.w3.org/2000/svg">
<path fill-rule="evenodd" clip-rule="evenodd" d="M32.8114 0.285156H2.15983C1.11369 0.285156 0.265625 1.13322 0.265625 2.17936V32.831C0.265625 33.3333 0.465192 33.8151 0.820424 34.1704C1.17566 34.5256 1.65745 34.7252 2.15983 34.7252H18.6566V21.3797H14.1794V16.2137H18.6566V12.3392C18.4689 10.4978 19.1045 8.6677 20.3932 7.33918C21.6818 6.01065 23.4918 5.31958 25.338 5.45116C26.6782 5.44291 28.0179 5.5119 29.3502 5.6578V10.3072H26.6122C24.4425 10.3072 24.0292 11.3404 24.0292 12.8385V16.162H29.1952L28.5237 21.328H24.0292V34.7252H32.8114C33.3138 34.7252 33.7956 34.5256 34.1508 34.1704C34.5061 33.8151 34.7056 33.3333 34.7056 32.831V2.17936C34.7056 1.67698 34.5061 1.19519 34.1508 0.839955C33.7956 0.484723 33.3138 0.285156 32.8114 0.285156Z" fill="#1D2A3B"/>
</svg>
