<svg width="35" height="29" viewBox="0 0 35 29" fill="none" xmlns="http://www.w3.org/2000/svg">
<path fill-rule="evenodd" clip-rule="evenodd" d="M34.7056 3.7627C33.4113 4.32721 32.0424 4.70038 30.6417 4.87061C32.1195 3.98311 33.2269 2.5869 33.7585 0.94099C32.3698 1.77203 30.8497 2.35755 29.2641 2.6721C27.0844 0.295776 23.5828 -0.299769 20.7467 1.22349C17.9107 2.74675 16.4568 6.00399 17.2101 9.14645C11.5316 8.85772 6.24221 6.15814 2.65921 1.71999C2.0378 2.81088 1.71128 4.04629 1.71211 5.30339C1.70763 7.67451 2.88412 9.89047 4.84615 11.2065C3.72336 11.1758 2.62457 10.8729 1.64323 10.3236V10.4102C1.66057 13.7823 4.03583 16.6767 7.32583 17.3346C6.71151 17.5225 6.07372 17.6216 5.43163 17.6289C4.98716 17.6237 4.5438 17.5832 4.10569 17.5077C5.03725 20.392 7.68496 22.3657 10.7009 22.4241C8.21645 24.3893 5.14902 25.4619 1.98763 25.4708C1.41202 25.4727 0.836874 25.438 0.265625 25.367C3.49339 27.462 7.2549 28.5742 11.097 28.5695C16.4529 28.6254 21.6063 26.5148 25.3986 22.7123C29.1908 18.9098 31.3035 13.7345 31.2616 8.35014C31.2616 8.05585 31.2616 7.74425 31.2616 7.43265C32.6129 6.41963 33.7783 5.17775 34.7056 3.7627Z" fill="#1D2A3B"/>
</svg>
