<svg width="35" height="35" viewBox="0 0 35 35" fill="none" xmlns="http://www.w3.org/2000/svg">
<path fill-rule="evenodd" clip-rule="evenodd" d="M26.6789 6.25327C25.8431 6.25327 25.0896 6.75673 24.7698 7.5289C24.4499 8.30106 24.6267 9.18986 25.2177 9.78084C25.8087 10.3718 26.6975 10.5486 27.4697 10.2288C28.2418 9.90894 28.7453 9.15546 28.7453 8.31968C28.7453 7.17843 27.8201 6.25327 26.6789 6.25327ZM34.6053 10.4176C34.5718 8.98885 34.3042 7.57527 33.8132 6.23314C33.3753 5.08479 32.6939 4.04495 31.8157 3.1852C30.963 2.30254 29.9207 1.62537 28.7677 1.2049C27.4291 0.698905 26.014 0.425192 24.5832 0.395556C22.7579 0.292236 22.1724 0.292236 17.4886 0.292236C12.8047 0.292236 12.2193 0.292236 10.3939 0.395556C8.96321 0.425192 7.54806 0.698905 6.20947 1.2049C5.05861 1.62962 4.01724 2.30622 3.16152 3.1852C2.27887 4.03789 1.60169 5.08015 1.18122 6.23314C0.675224 7.57172 0.401511 8.98688 0.371875 10.4176C0.268555 12.2429 0.268555 12.8284 0.268555 17.5122C0.268555 22.1961 0.268555 22.7816 0.371875 24.6069C0.401511 26.0376 0.675224 27.4527 1.18122 28.7913C1.60169 29.9443 2.27887 30.9866 3.16152 31.8393C4.01724 32.7182 5.05861 33.3948 6.20947 33.8196C7.54806 34.3256 8.96321 34.5993 10.3939 34.6289C12.2193 34.7322 12.8047 34.7322 17.4886 34.7322C22.1724 34.7322 22.7579 34.7322 24.5832 34.6289C26.014 34.5993 27.4291 34.3256 28.7677 33.8196C29.9207 33.3991 30.963 32.7219 31.8157 31.8393C32.6977 30.9827 33.3798 29.942 33.8132 28.7913C34.3042 27.4492 34.5718 26.0356 34.6053 24.6069C34.6053 22.7816 34.7086 22.1961 34.7086 17.5122C34.7086 12.8284 34.7086 12.2429 34.6053 10.4176ZM31.5076 24.4051C31.4951 25.4982 31.2971 26.5812 30.9221 27.608C30.6472 28.3574 30.2056 29.0346 29.6306 29.5883C29.0721 30.1575 28.3964 30.5982 27.6503 30.8798C26.6235 31.2548 25.5405 31.4528 24.4474 31.4653C22.7254 31.5514 22.0883 31.5686 17.5594 31.5686C13.0305 31.5686 12.3934 31.5686 10.6714 31.4653C9.53642 31.4866 8.40628 31.3118 7.33072 30.9487C6.61744 30.6527 5.97268 30.2131 5.43652 29.6572C4.86497 29.104 4.42888 28.4263 4.16224 27.6769C3.74182 26.6354 3.50864 25.5278 3.47344 24.4051C3.47344 22.6831 3.37012 22.046 3.37012 17.5171C3.37012 12.9883 3.37012 12.3511 3.47344 10.6291C3.48116 9.51165 3.68516 8.40421 4.07614 7.35733C4.37929 6.63049 4.84461 5.98258 5.43652 5.46313C5.95969 4.87105 6.60625 4.40082 7.33072 4.08553C8.38037 3.70676 9.48666 3.5088 10.6025 3.50005C12.3245 3.50005 12.9617 3.39673 17.4905 3.39673C22.0194 3.39673 22.6565 3.39673 24.3785 3.50005C25.4716 3.51259 26.5546 3.71056 27.5815 4.08553C28.364 4.37595 29.0663 4.84811 29.6306 5.46313C30.195 5.99209 30.6359 6.63879 30.9221 7.35733C31.3049 8.40591 31.503 9.51289 31.5076 10.6291C31.5937 12.3511 31.6109 12.9883 31.6109 17.5171C31.6109 22.046 31.5937 22.6831 31.5076 24.4051ZM17.4915 8.68195C12.6149 8.69146 8.66848 12.6507 8.67481 17.5273C8.68115 22.4038 12.6378 26.3528 17.5144 26.3497C22.391 26.3465 26.3426 22.3924 26.3426 17.5158C26.3472 15.1685 25.4156 12.9163 23.7542 11.2582C22.0928 9.59999 19.8387 8.67278 17.4915 8.68195ZM17.4952 23.2492C14.3282 23.2492 11.7609 20.6819 11.7609 17.5149C11.7609 14.348 14.3282 11.7807 17.4952 11.7807C20.6621 11.7807 23.2295 14.348 23.2295 17.5149C23.2295 19.0357 22.6253 20.4943 21.5499 21.5697C20.4746 22.645 19.016 23.2492 17.4952 23.2492Z" fill="#1D2A3B"/>
</svg>
