<svg width="35" height="35" viewBox="0 0 35 35" fill="none" xmlns="http://www.w3.org/2000/svg">
<path fill-rule="evenodd" clip-rule="evenodd" d="M32.072 0.281491H2.90145C2.23921 0.272294 1.60045 0.526579 1.12572 0.988393C0.650993 1.45021 0.379188 2.08171 0.370117 2.74395V32.259C0.379188 32.9213 0.650993 33.5528 1.12572 34.0146C1.60045 34.4764 2.23921 34.7307 2.90145 34.7215H32.072C32.7343 34.7307 33.373 34.4764 33.8478 34.0146C34.3225 33.5528 34.5943 32.9213 34.6034 32.259V2.74395C34.5943 2.08171 34.3225 1.45021 33.8478 0.988393C33.373 0.526579 32.7343 0.272294 32.072 0.281491ZM10.7524 29.1112H5.58636V13.6132H10.7524V29.1112ZM8.16856 11.4367C6.68496 11.4367 5.48226 10.234 5.48226 8.75042C5.48226 7.2668 6.68496 6.0641 8.16856 6.0641C9.20091 5.94702 10.209 6.4319 10.762 7.31149C11.315 8.19108 11.315 9.30975 10.762 10.1893C10.209 11.0689 9.20091 11.5538 8.16856 11.4367ZM29.3912 29.1072H24.2252V20.7899C24.2252 18.7063 23.4847 17.3459 21.6077 17.3459C20.418 17.3546 19.3596 18.1037 18.9559 19.2229C18.8211 19.6277 18.7627 20.0539 18.7837 20.48V29.09H13.6177C13.6177 29.09 13.6177 15.004 13.6177 13.592H18.7837V15.7789C19.7401 14.1194 21.5362 13.1252 23.4503 13.1959C26.8943 13.1959 29.3912 15.4173 29.3912 20.1872V29.1072Z" fill="#1D2A3B"/>
</svg>
