<svg width="33" height="33" viewBox="0 0 33 33" fill="none" xmlns="http://www.w3.org/2000/svg">
<path d="M2.42676 5.16869C2.42676 4.3283 2.7606 3.52233 3.35485 2.92809C3.94909 2.33384 4.75506 2 5.59545 2H10.7921C11.1245 2.00025 11.4484 2.10504 11.7179 2.29952C11.9875 2.49401 12.189 2.76834 12.2941 3.08369L14.6674 10.2022C14.7877 10.5639 14.7735 10.9569 14.6274 11.3091C14.4813 11.6612 14.2131 11.9488 13.8721 12.1192L10.2962 13.9095C12.049 17.7889 15.1561 20.896 19.0355 22.6488L20.8258 19.0729C20.9962 18.7319 21.2838 18.4637 21.6359 18.3176C21.9881 18.1715 22.3811 18.1573 22.7428 18.2776L29.8613 20.6509C30.1769 20.756 30.4514 20.9578 30.6459 21.2277C30.8404 21.4976 30.9451 21.8218 30.945 22.1545V27.3495C30.945 28.1899 30.6112 28.9959 30.0169 29.5901C29.4227 30.1844 28.6167 30.5182 27.7763 30.5182H26.192C13.0672 30.5182 2.42676 19.8778 2.42676 6.75304V5.16869Z" stroke="#1DB954" stroke-width="3.16869" stroke-linecap="round" stroke-linejoin="round"/>
</svg>
