<svg width="19" height="22" viewBox="0 0 19 22" fill="none" xmlns="http://www.w3.org/2000/svg">
<path d="M8.5 0.5C11.815 0.5 14.5 3.185 14.5 6.5C14.5 9.815 11.815 12.5 8.5 12.5C5.185 12.5 2.5 9.815 2.5 6.5C2.5 3.185 5.185 0.5 8.5 0.5Z" fill="#FF6536"/>
<path d="M14.341 15.159L14.517 15.336L14.695 15.159C14.9039 14.9501 15.152 14.7843 15.425 14.6713C15.6979 14.5582 15.9905 14.5 16.286 14.5C16.5815 14.5 16.8741 14.5582 17.147 14.6713C17.42 14.7843 17.6681 14.9501 17.877 15.159C18.0859 15.3679 18.2517 15.616 18.3647 15.889C18.4778 16.1619 18.536 16.4545 18.536 16.75C18.536 17.0455 18.4778 17.3381 18.3647 17.611C18.2517 17.884 18.0859 18.1321 17.877 18.341L14.517 21.7L11.159 18.341C10.737 17.919 10.5 17.3467 10.5 16.75C10.5 16.1533 10.737 15.581 11.159 15.159C11.581 14.737 12.1533 14.5 12.75 14.5C13.3467 14.5 13.919 14.737 14.341 15.159Z" fill="#FE8E01"/>
<path d="M8.5 13.5V21.5H0.5C0.500024 19.4216 1.30894 17.4247 2.75547 15.9323C4.202 14.4398 6.17259 13.569 8.25 13.504L8.5 13.5Z" fill="#FF6536"/>
</svg>
