<svg width="17" height="23" viewBox="0 0 17 23" fill="none" xmlns="http://www.w3.org/2000/svg">
<path d="M8.50034 0.5C10.7103 0.5 12.5003 2.29 12.5003 4.5C12.5003 6.71 10.7103 8.5 8.50034 8.5C6.29034 8.5 4.50034 6.71 4.50034 4.5C4.50034 2.29 6.29034 0.5 8.50034 0.5Z" fill="#FF6536"/>
<path d="M14.8643 10.48C16.4263 12.041 16.4263 14.574 14.8643 16.136L9.20734 21.793C8.81734 22.183 8.18334 22.183 7.79334 21.793L2.13634 16.136C0.574344 14.574 0.574344 12.041 2.13634 10.479C3.69834 8.917 6.23134 8.917 7.79334 10.479L8.49934 11.186L9.20734 10.479C10.7693 8.917 13.3023 8.918 14.8643 10.48Z" fill="#FF8E00"/>
</svg>
