<svg width="122" height="122" viewBox="0 0 122 122" fill="none" xmlns="http://www.w3.org/2000/svg">
<path fill-rule="evenodd" clip-rule="evenodd" d="M60.5554 91.1753C68.5743 91.1753 76.2647 87.9898 81.9348 82.3196C87.605 76.6494 90.7905 68.959 90.7905 60.9402C90.7905 52.9213 87.605 45.2309 81.9348 39.5607C76.2647 33.8906 68.5743 30.7051 60.5554 30.7051C52.5366 30.7051 44.8461 33.8906 39.176 39.5607C33.5058 45.2309 30.3203 52.9213 30.3203 60.9402C30.3203 68.959 33.5058 76.6494 39.176 82.3196C44.8461 87.9898 52.5366 91.1753 60.5554 91.1753ZM74.5656 56.0534C75.254 55.3406 75.635 54.3859 75.6264 53.395C75.6178 52.4041 75.2203 51.4561 74.5196 50.7554C73.8188 50.0547 72.8709 49.6572 71.88 49.6486C70.889 49.64 69.9343 50.0209 69.2215 50.7094L56.776 63.1549L51.8893 58.2681C51.1765 57.5797 50.2218 57.1988 49.2308 57.2074C48.2399 57.216 47.292 57.6135 46.5913 58.3142C45.8905 59.0149 45.4931 59.9628 45.4844 60.9538C45.4758 61.9447 45.8568 62.8994 46.5452 63.6122L54.104 71.171C54.8127 71.8795 55.7739 72.2775 56.776 72.2775C57.7782 72.2775 58.7393 71.8795 59.448 71.171L74.5656 56.0534Z" fill="#1DB954"/>
<circle cx="60.5551" cy="60.9402" r="60.4702" fill="#1DB954" fill-opacity="0.08"/>
<circle cx="60.5557" cy="60.9402" r="51.8316" fill="#1DB954" fill-opacity="0.13"/>
<circle cx="60.5553" cy="60.9403" r="43.193" fill="#1DB954" fill-opacity="0.22"/>
</svg>
