<svg width="18" height="22" viewBox="0 0 18 22" fill="none" xmlns="http://www.w3.org/2000/svg">
<path d="M6 5.5C6 4.94772 5.55228 4.5 5 4.5C4.44772 4.5 4 4.94772 4 5.5H6ZM4 16.5C4 17.0523 4.44772 17.5 5 17.5C5.55228 17.5 6 17.0523 6 16.5H4ZM4 5.5V16.5H6V5.5H4Z" fill="#1DB954"/>
<path d="M2 8.5C2 7.94772 1.55228 7.5 1 7.5C0.447715 7.5 0 7.94772 0 8.5H2ZM0 13.5C0 14.0523 0.447715 14.5 1 14.5C1.55228 14.5 2 14.0523 2 13.5H0ZM0 8.5V13.5H2V8.5H0Z" fill="#1DB954"/>
<path d="M14 5.5C14 4.94772 13.5523 4.5 13 4.5C12.4477 4.5 12 4.94772 12 5.5H14ZM12 16.5C12 17.0523 12.4477 17.5 13 17.5C13.5523 17.5 14 17.0523 14 16.5H12ZM12 5.5V16.5H14V5.5H12Z" fill="#1DB954"/>
<path d="M18 8.5C18 7.94772 17.5523 7.5 17 7.5C16.4477 7.5 16 7.94772 16 8.5H18ZM16 13.5C16 14.0523 16.4477 14.5 17 14.5C17.5523 14.5 18 14.0523 18 13.5H16ZM16 8.5V13.5H18V8.5H16Z" fill="#1DB954"/>
<path d="M10 1.5C10 0.947715 9.55228 0.5 9 0.5C8.44772 0.5 8 0.947715 8 1.5L10 1.5ZM8 20.5C8 21.0523 8.44772 21.5 9 21.5C9.55229 21.5 10 21.0523 10 20.5L8 20.5ZM8 1.5L8 20.5L10 20.5L10 1.5L8 1.5Z" fill="#1DB954"/>
</svg>
