<svg width="15" height="15" viewBox="0 0 15 15" fill="none" xmlns="http://www.w3.org/2000/svg">
<path d="M7.5 1.875C5.9087 1.875 4.38258 2.50714 3.25736 3.63236C2.13214 4.75758 1.5 6.2837 1.5 7.875H3.75C4.14782 7.875 4.52936 8.03304 4.81066 8.31434C5.09196 8.59564 5.25 8.97718 5.25 9.375V13.125C5.25 13.5228 5.09196 13.9044 4.81066 14.1857C4.52936 14.467 4.14782 14.625 3.75 14.625H1.5C1.10218 14.625 0.720644 14.467 0.43934 14.1857C0.158035 13.9044 0 13.5228 0 13.125V7.875C0 3.73275 3.35775 0.375 7.5 0.375C11.6423 0.375 15 3.73275 15 7.875V13.125C15 13.5228 14.842 13.9044 14.5607 14.1857C14.2794 14.467 13.8978 14.625 13.5 14.625H11.25C10.8522 14.625 10.4706 14.467 10.1893 14.1857C9.90804 13.9044 9.75 13.5228 9.75 13.125V9.375C9.75 8.97718 9.90804 8.59564 10.1893 8.31434C10.4706 8.03304 10.8522 7.875 11.25 7.875H13.5C13.5 6.2837 12.8679 4.75758 11.7426 3.63236C10.6174 2.50714 9.0913 1.875 7.5 1.875ZM1.5 9.375V13.125H3.75V9.375H1.5ZM11.25 9.375V13.125H13.5V9.375H11.25Z" fill="#B4B4B4"/>
</svg>
