<svg width="17" height="16" viewBox="0 0 17 16" fill="none" xmlns="http://www.w3.org/2000/svg">
<path d="M1.37467 14.3066H7.70801V2.43164C7.70801 1.80175 7.45779 1.19766 7.01239 0.752262C6.56699 0.306863 5.9629 0.0566406 5.33301 0.0566406H1.37467C1.16471 0.0566406 0.963348 0.140048 0.814882 0.288514C0.666415 0.436981 0.583008 0.638344 0.583008 0.848307V13.515C0.583008 13.7249 0.666415 13.9263 0.814882 14.0748C0.963348 14.2232 1.16471 14.3066 1.37467 14.3066Z" fill="#FF6536"/>
<path fill-rule="evenodd" clip-rule="evenodd" d="M7.70801 15.89V14.3066H9.29134V15.89H7.70801Z" fill="#FF6536"/>
<path d="M9.29134 14.3066H15.6247C15.8346 14.3066 16.036 14.2232 16.1845 14.0748C16.3329 13.9263 16.4163 13.7249 16.4163 13.515V0.848307C16.4163 0.638344 16.3329 0.436981 16.1845 0.288514C16.036 0.140048 15.8346 0.0566406 15.6247 0.0566406H11.6663C11.0365 0.0566406 10.4324 0.306863 9.98696 0.752262C9.54156 1.19766 9.29134 1.80175 9.29134 2.43164V14.3066Z" fill="#FFA900"/>
</svg>
