<svg width="15" height="14" viewBox="0 0 15 14" fill="none" xmlns="http://www.w3.org/2000/svg">
<path d="M1.64421 12.3333H6.97754V2.33333C6.97754 1.8029 6.76683 1.29419 6.39175 0.919115C6.01668 0.544042 5.50797 0.333328 4.97754 0.333328H1.64421C1.46739 0.333328 1.29783 0.403566 1.1728 0.52859C1.04778 0.653615 0.977539 0.823184 0.977539 0.999995V11.6667C0.977539 11.8435 1.04778 12.013 1.1728 12.1381C1.29783 12.2631 1.46739 12.3333 1.64421 12.3333Z" fill="#FF6536"/>
<path fill-rule="evenodd" clip-rule="evenodd" d="M6.97754 13.6667V12.3333H8.31087V13.6667H6.97754Z" fill="#FF6536"/>
<path d="M8.31087 12.3333H13.6442C13.821 12.3333 13.9906 12.2631 14.1156 12.1381C14.2406 12.013 14.3109 11.8435 14.3109 11.6667V0.999995C14.3109 0.823184 14.2406 0.653615 14.1156 0.52859C13.9906 0.403566 13.821 0.333328 13.6442 0.333328H10.3109C9.78044 0.333328 9.27173 0.544042 8.89666 0.919115C8.52159 1.29419 8.31087 1.8029 8.31087 2.33333V12.3333Z" fill="#FFA900"/>
</svg>
