<svg width="94" height="94" viewBox="0 0 94 94" fill="none" xmlns="http://www.w3.org/2000/svg">
<circle r="47" transform="matrix(-1 0 0 1 47 47)" fill="#293545"/>
<g clip-path="url(#clip0_600_41403)">
<path d="M53.9999 53C54.1493 53 54.2986 53.0219 54.4411 53.0681C55.2511 53.3312 56.103 53.5 56.9999 53.5C57.8968 53.5 58.7486 53.3312 59.5593 53.0681C59.7018 53.0219 59.8505 53 59.9999 53C63.8786 53 67.0205 56.155 66.9999 60.0387C66.9911 61.68 65.6418 63 63.9999 63H49.9999C48.358 63 47.0086 61.68 46.9999 60.0387C46.9793 56.155 50.1211 53 53.9999 53ZM56.9999 51C53.6861 51 50.9999 48.3137 50.9999 45C50.9999 41.6862 53.6861 39 56.9999 39C60.3136 39 62.9999 41.6862 62.9999 45C62.9999 48.3137 60.3136 51 56.9999 51ZM29.9999 31H53.9999C55.6543 31 56.9999 32.3906 56.9999 34.0994V37C55.5361 37 54.1811 37.4237 52.9999 38.1125V35H30.9999V53H34.9999V49H42.9999V53H47.7649C46.5711 54.0431 45.6949 55.4206 45.2843 57H29.9999C28.3455 57 26.9999 55.6094 26.9999 53.9006V34.0994C26.9999 32.3906 28.3455 31 29.9999 31Z" fill="white"/>
</g>
<defs>
<clipPath id="clip0_600_41403">
<rect width="40" height="32" fill="white" transform="matrix(-1 0 0 1 67 31)"/>
</clipPath>
</defs>
</svg>
