<svg width="94" height="94" viewBox="0 0 94 94" fill="none" xmlns="http://www.w3.org/2000/svg">
<circle r="47" transform="matrix(-1 0 0 1 47 47)" fill="#293545"/>
<path d="M46.5002 43.9746C43.2141 43.9746 40.5502 41.3443 40.5502 38.0996C40.5502 34.8549 43.2141 32.2246 46.5002 32.2246C49.7863 32.2246 52.4502 34.8549 52.4502 38.0996C52.4502 41.3443 49.7863 43.9746 46.5002 43.9746Z" fill="white"/>
<path d="M55.525 38.6882H54.925V38.1507C54.9213 36.5877 54.4804 35.0569 53.652 33.7315C52.8236 32.406 51.6408 31.3389 50.2375 30.6507C50.6529 29.6939 51.3198 28.8675 52.1672 28.2592C53.0146 27.651 54.0109 27.2836 55.0503 27.1961C56.0898 27.1086 57.1335 27.3043 58.0706 27.7624C59.0078 28.2205 59.8034 28.9238 60.3729 29.7977C60.9424 30.6716 61.2646 31.6834 61.3053 32.7257C61.3459 33.7681 61.1035 34.8019 60.6038 35.7175C60.104 36.6331 59.3656 37.3963 58.467 37.9259C57.5684 38.4556 56.5431 38.7319 55.5 38.7257L55.525 38.6882ZM38.05 38.1007V38.6382H37.45C36.4208 38.6278 35.4134 38.3403 34.5339 37.8057C33.6544 37.2711 32.9352 36.5093 32.4522 35.6004C31.9691 34.6916 31.74 33.6693 31.7889 32.6412C31.8378 31.6132 32.163 30.6173 32.7302 29.7584C33.2975 28.8996 34.0857 28.2095 35.012 27.7609C35.9384 27.3123 36.9685 27.1217 37.994 27.2092C39.0196 27.2967 40.0025 27.659 40.8395 28.258C41.6764 28.8571 42.3364 29.6707 42.75 30.6132C41.3462 31.2987 40.1621 32.3631 39.3316 33.6863C38.501 35.0094 38.0571 36.5385 38.05 38.1007ZM41.1375 44.5632C38.6521 45.0551 36.2491 45.8968 34 47.0632C33.6831 47.2372 33.3961 47.4609 33.15 47.7257H26.5V43.4507C26.4988 43.2867 26.5424 43.1255 26.6261 42.9845C26.7098 42.8435 26.8304 42.7281 26.975 42.6507C30.2148 40.9561 33.8188 40.0765 37.475 40.0882H38.3C38.7332 41.8491 39.7295 43.4204 41.1375 44.5632ZM60.8375 50.1507C60.8398 49.5211 60.6697 48.903 60.3458 48.3632C60.022 47.8233 59.5565 47.3824 59 47.0882C56.7509 45.9218 54.3478 45.0801 51.8625 44.5882C53.2636 43.4551 54.2593 41.898 54.7 40.1507H55.525C59.1812 40.139 62.7852 41.0186 66.025 42.7132C66.1695 42.7906 66.2902 42.906 66.3739 43.047C66.4576 43.188 66.5012 43.3492 66.5 43.5132V51.5007H60.8375V50.1507ZM42.175 57.3632H34.725V59.1132H42.175V57.3632Z" fill="white"/>
<path d="M27.9879 50.575H36.5754V49.325C36.5754 48.9934 36.7071 48.6755 36.9415 48.4411C37.1759 48.2067 37.4938 48.075 37.8254 48.075C38.1569 48.075 38.4748 48.2067 38.7092 48.4411C38.9437 48.6755 39.0754 48.9934 39.0754 49.325V50.575H41.5004V47.0375C43.145 46.6921 44.82 46.5121 46.5004 46.5C50.4457 46.4835 54.3346 47.4365 57.8254 49.275C57.9809 49.3556 58.111 49.4777 58.2015 49.6277C58.2919 49.7777 58.3391 49.9498 58.3379 50.125V57.1375H49.4504V64.75C49.4504 65.0815 49.3187 65.3994 49.0843 65.6338C48.8498 65.8683 48.5319 66 48.2004 66H27.9879C27.6563 66 27.3384 65.8683 27.104 65.6338C26.8696 65.3994 26.7379 65.0815 26.7379 64.75V51.825C26.7379 51.4934 26.8696 51.1755 27.104 50.9411C27.3384 50.7067 27.6563 50.575 27.9879 50.575ZM29.2379 63.525H46.9504V53.075H39.0754V54.2125C39.0754 54.544 38.9437 54.8619 38.7092 55.0963C38.4748 55.3308 38.1569 55.4625 37.8254 55.4625C37.4938 55.4625 37.1759 55.3308 36.9415 55.0963C36.7071 54.8619 36.5754 54.544 36.5754 54.2125V53.075H29.2379V63.525Z" fill="white"/>
</svg>
