<svg width="94" height="94" viewBox="0 0 94 94" fill="none" xmlns="http://www.w3.org/2000/svg">
<circle r="47" transform="matrix(-1 0 0 1 47 47)" fill="#293545"/>
<path d="M54.6458 47C56.8958 47.0707 58.7361 47.9754 60.1667 49.7143H62.9583C64.0972 49.7143 65.0556 49.428 65.8333 48.8555C66.6111 48.2829 67 47.4453 67 46.3426C67 41.3523 66.1389 38.8571 64.4167 38.8571C64.3333 38.8571 64.0312 39.0056 63.5104 39.3025C62.9896 39.5993 62.3125 39.8997 61.4792 40.2037C60.6458 40.5076 59.8194 40.6596 59 40.6596C58.0694 40.6596 57.1458 40.497 56.2292 40.1719C56.2986 40.6949 56.3333 41.1615 56.3333 41.5714C56.3333 43.5365 55.7708 45.346 54.6458 47ZM32.3333 60.5078C32.3333 62.2042 32.8403 63.5437 33.8542 64.5262C34.8681 65.5087 36.2153 66 37.8958 66H56.1042C57.7847 66 59.1319 65.5087 60.1458 64.5262C61.1597 63.5437 61.6667 62.2042 61.6667 60.5078C61.6667 59.7586 61.6424 59.027 61.5938 58.3131C61.5451 57.5991 61.4479 56.8287 61.3021 56.0017C61.1562 55.1747 60.9722 54.4077 60.75 53.7009C60.5278 52.994 60.2292 52.3049 59.8542 51.6334C59.4792 50.9619 59.0486 50.3893 58.5625 49.9157C58.0764 49.4422 57.4826 49.064 56.7812 48.7812C56.0799 48.4985 55.3056 48.3571 54.4583 48.3571C54.3194 48.3571 54.0208 48.5091 53.5625 48.8131C53.1042 49.117 52.5972 49.4563 52.0417 49.8309C51.4861 50.2055 50.7431 50.5448 49.8125 50.8488C48.8819 51.1527 47.9444 51.3047 47 51.3047C46.0556 51.3047 45.1181 51.1527 44.1875 50.8488C43.2569 50.5448 42.5139 50.2055 41.9583 49.8309C41.4028 49.4563 40.8958 49.117 40.4375 48.8131C39.9792 48.5091 39.6806 48.3571 39.5417 48.3571C38.6944 48.3571 37.9201 48.4985 37.2188 48.7812C36.5174 49.064 35.9236 49.4422 35.4375 49.9157C34.9514 50.3893 34.5208 50.9619 34.1458 51.6334C33.7708 52.3049 33.4722 52.994 33.25 53.7009C33.0278 54.4077 32.8438 55.1747 32.6979 56.0017C32.5521 56.8287 32.4549 57.5991 32.4062 58.3131C32.3576 59.027 32.3333 59.7586 32.3333 60.5078ZM53.6667 33.4286C53.6667 34.9271 54.1875 36.2065 55.2292 37.2667C56.2708 38.327 57.5278 38.8571 59 38.8571C60.4722 38.8571 61.7292 38.327 62.7708 37.2667C63.8125 36.2065 64.3333 34.9271 64.3333 33.4286C64.3333 31.9301 63.8125 30.6507 62.7708 29.5904C61.7292 28.5301 60.4722 28 59 28C57.5278 28 56.2708 28.5301 55.2292 29.5904C54.1875 30.6507 53.6667 31.9301 53.6667 33.4286ZM39 41.5714C39 43.8192 39.7812 45.7383 41.3438 47.3287C42.9062 48.9191 44.7917 49.7143 47 49.7143C49.2083 49.7143 51.0938 48.9191 52.6562 47.3287C54.2188 45.7383 55 43.8192 55 41.5714C55 39.3237 54.2188 37.4046 52.6562 35.8142C51.0938 34.2238 49.2083 33.4286 47 33.4286C44.7917 33.4286 42.9062 34.2238 41.3438 35.8142C39.7812 37.4046 39 39.3237 39 41.5714ZM27 46.3426C27 47.4453 27.3889 48.2829 28.1667 48.8555C28.9444 49.428 29.9028 49.7143 31.0417 49.7143H33.8333C35.2639 47.9754 37.1042 47.0707 39.3542 47C38.2292 45.346 37.6667 43.5365 37.6667 41.5714C37.6667 41.1615 37.7014 40.6949 37.7708 40.1719C36.8542 40.497 35.9306 40.6596 35 40.6596C34.1806 40.6596 33.3542 40.5076 32.5208 40.2037C31.6875 39.8997 31.0104 39.5993 30.4896 39.3025C29.9688 39.0056 29.6667 38.8571 29.5833 38.8571C27.8611 38.8571 27 41.3523 27 46.3426ZM29.6667 33.4286C29.6667 34.9271 30.1875 36.2065 31.2292 37.2667C32.2708 38.327 33.5278 38.8571 35 38.8571C36.4722 38.8571 37.7292 38.327 38.7708 37.2667C39.8125 36.2065 40.3333 34.9271 40.3333 33.4286C40.3333 31.9301 39.8125 30.6507 38.7708 29.5904C37.7292 28.5301 36.4722 28 35 28C33.5278 28 32.2708 28.5301 31.2292 29.5904C30.1875 30.6507 29.6667 31.9301 29.6667 33.4286Z" fill="white"/>
</svg>
